<mxfile host="app.diagrams.net" modified="2023-01-24T09:39:30.122Z" agent="5.0 (Windows NT 10.0; Win64; x64) AppleWebKit/537.36 (KHTML, like Gecko) Chrome/109.0.0.0 Safari/537.36" etag="9zB8UJcp4Pn10qnBk9BP" version="20.8.10" type="github">
  <diagram name="第 1 页" id="PUkuh8zFJW4wYWl7b16e">
    <mxGraphModel dx="1886" dy="1226" grid="1" gridSize="10" guides="1" tooltips="1" connect="1" arrows="1" fold="1" page="1" pageScale="1" pageWidth="1200" pageHeight="1920" math="0" shadow="0">
      <root>
        <mxCell id="0" />
        <mxCell id="1" parent="0" />
      </root>
    </mxGraphModel>
  </diagram>
</mxfile>
